<svg width="563" height="1690" viewBox="0 0 563 1690" fill="none" xmlns="http://www.w3.org/2000/svg">
<path d="M173.43 1545.08C173.43 1545.08 149.335 1580.86 140.427 1588.59C131.519 1596.33 83.3337 1624.36 72.5671 1628.23C61.805 1632.1 62.6223 1638.86 65.403 1644.67C68.1837 1650.47 84.4022 1663.05 129.094 1661.12C173.786 1659.19 177.667 1659.19 194.256 1655.33C210.844 1651.46 257.367 1654.37 257.367 1654.37C257.367 1654.37 288.448 1653.41 295.415 1645.67C302.383 1637.94 299.73 1582.82 299.73 1582.82L173.43 1545.08Z" fill="white" stroke="#263238" stroke-miterlimit="10" stroke-linecap="round" stroke-linejoin="round"/>
<path d="M299.712 1624.78C289.11 1626.02 273.193 1628.43 251.057 1633.09C205.223 1642.75 200.306 1645.65 134.281 1646.61C101.931 1647.08 78.8363 1642.44 63.6406 1637.59C63.5356 1639.94 64.3118 1642.38 65.4122 1644.67C68.1929 1650.47 84.4159 1663.05 129.103 1661.12C173.795 1659.19 177.676 1659.19 194.265 1655.33C210.853 1651.47 257.376 1654.37 257.376 1654.37C257.376 1654.37 288.457 1653.41 295.424 1645.67C297.84 1642.99 299.096 1634.59 299.712 1624.78Z" fill="white" stroke="#263238" stroke-miterlimit="10" stroke-linecap="round" stroke-linejoin="round"/>
<path d="M337.012 1565.42C337.012 1565.42 332.783 1580.89 321.674 1600.23C310.565 1619.56 277.087 1640.84 257.376 1654.37C237.66 1667.9 238.5 1673.71 252.91 1680.48C267.321 1687.25 322.578 1690.16 341.043 1689.2C359.508 1688.23 414.204 1672.77 421.994 1671.8C429.779 1670.84 439.445 1672.77 446.582 1657.3C453.723 1641.83 445.641 1603.11 445.641 1603.11C445.641 1603.11 400.063 1567.36 381.708 1563.49C363.344 1559.62 346.952 1554.78 337.012 1565.42Z" fill="white" stroke="#263238" stroke-miterlimit="10" stroke-linecap="round" stroke-linejoin="round"/>
<path d="M446.577 1657.3C448.417 1653.31 449.235 1647.77 449.454 1641.76C439.08 1644.84 427.29 1648.91 419.487 1653.43C402.771 1663.09 383.119 1673.73 337.482 1674.69C301.082 1675.45 258.682 1670.07 242.988 1667.85C240.756 1672.88 244.495 1676.52 252.91 1680.47C267.321 1687.24 322.578 1690.15 341.043 1689.19C359.508 1688.22 414.209 1672.76 421.994 1671.79C429.774 1670.84 439.436 1672.77 446.577 1657.3Z" fill="white" stroke="#263238" stroke-miterlimit="10" stroke-linecap="round" stroke-linejoin="round"/>
<path d="M141.756 1031.73C141.756 1031.73 155.422 1220.66 162.458 1266.12C169.494 1311.57 179.014 1485.43 178.914 1489.88C178.813 1494.34 179.27 1513.95 178.316 1516.62C177.361 1519.29 168.394 1520.18 167.403 1524.64C166.408 1529.09 164.997 1552.26 165.791 1556.72C166.586 1561.18 175.512 1562.07 190.521 1570.99C205.529 1579.9 251.746 1593.28 268.741 1593.28C285.735 1593.28 301.799 1595.06 301.858 1592.39C301.917 1589.72 302.972 1542.48 303.292 1528.22C303.611 1513.97 299.219 1510.4 300.369 1498.82C301.525 1487.23 297.401 1031.75 297.401 1031.75L312.51 1036.21C312.51 1036.21 321.957 1333.87 324.738 1369.52C327.519 1405.17 323.743 1533.58 323.743 1533.58C323.743 1533.58 315.611 1537.14 315.533 1540.71C315.191 1556.58 320.72 1574.24 323.419 1589.84C339.117 1585.35 355.878 1585.79 371.96 1587.49C386.516 1589.03 403.945 1590.12 417.565 1595.71C426.729 1599.48 435.61 1602.55 445.632 1603.11C445.632 1603.11 454.696 1597.77 455.81 1587.96C456.924 1578.16 457.262 1563.01 448.714 1545.18C440.167 1527.36 437.742 1515.77 439.276 1487.25C440.81 1458.73 462.193 1342.81 463.051 1304.49C463.91 1266.16 469.083 1154.76 470.216 1144.07C471.348 1133.38 477.576 1014.85 477.576 1014.85L460.225 990.779L141.514 1002.32L141.756 1031.73Z" fill="#EC6608" stroke="#263238" stroke-miterlimit="10" stroke-linecap="round" stroke-linejoin="round"/>
<path d="M210.123 1050.69L297.84 1113.62L298.119 1113.59C297.703 1064.94 297.402 1031.75 297.402 1031.75L312.511 1036.21C312.511 1036.21 313.515 1067.84 314.962 1111.71L314.999 1111.71L416.063 1046.88L308.798 996.259L232.428 999.021L210.123 1050.69Z" fill="#263238" stroke="#263238" stroke-miterlimit="10" stroke-linecap="round" stroke-linejoin="round"/>
<path d="M223.268 261.539L99.2142 315.373C99.2142 315.373 14.3323 507.277 11.9946 523.92C9.65676 540.568 28.1537 548.403 42.7238 556.238C57.2893 564.073 123.204 561.147 123.204 561.147L95.0044 1035.42C95.0044 1035.42 123.263 1046.2 158.426 1056C193.589 1065.79 252.294 1077.55 252.294 1077.55L265.248 1025.66L276.8 1080.49C276.8 1080.49 372.174 1078.55 408.803 1066.8C445.431 1055.06 531.724 1019.82 531.724 1019.82L511.629 683.602L506.369 611.144L510.282 523.998C510.282 523.998 553.746 514.213 554.006 502.464C554.271 490.716 528.747 313.482 524.071 302.711C519.396 291.94 477.443 278.224 472.553 277.246C467.659 276.265 373.969 246.878 373.969 246.878C373.969 246.878 266.997 240.006 223.268 261.539Z" fill="white" stroke="#263238" stroke-miterlimit="10" stroke-linecap="round" stroke-linejoin="round"/>
<path d="M247.427 236.084C247.427 236.084 230.633 239.997 227.597 243.915C224.56 247.832 198.876 297.766 198.876 297.766L225.108 311.478L197.018 336.933L269.654 473.05L407.428 333.052L378.361 314.441L404.438 290.944C404.438 290.944 391.639 247.86 383.037 237.088C374.435 226.317 363.732 221.418 363.732 221.418L247.427 236.084Z" fill="white" stroke="#263238" stroke-miterlimit="10" stroke-linecap="round" stroke-linejoin="round"/>
<path d="M237.774 228.248L242.664 273.292L273.909 414.299L362.851 260.58L370.846 210.646L236.222 209.646L237.774 228.248Z" fill="white" stroke="#263238" stroke-miterlimit="10" stroke-linecap="round" stroke-linejoin="round"/>
<path d="M235.14 38.2939C235.14 38.2939 206.068 63.7494 207.643 81.3741C209.214 98.9989 217.556 121.523 217.556 121.523L219.848 150.901L226.77 148.942L223.866 102.921L258.901 74.5297L321.734 77.4747C321.734 77.4747 339.993 96.0812 346.76 100.981C353.531 105.88 369.015 116.651 369.015 116.651L374.06 154.841L381.964 152.882C381.964 152.882 384.434 130.363 385.502 126.445C386.571 122.527 389.831 64.7585 389.11 53.0101C388.388 41.2618 348.838 7.96195 308.675 2.08094C268.512 -3.80006 244.486 15.779 236.404 25.5685C228.323 35.3534 235.14 38.2939 235.14 38.2939Z" fill="#263238" stroke="#263238" stroke-miterlimit="10" stroke-linecap="round" stroke-linejoin="round"/>
<path d="M264.12 60.8184C264.12 60.8184 224.062 94.1045 223.866 102.917C223.67 111.729 223.51 206.707 228.231 215.524C232.948 224.336 260.554 264.485 274.138 272.32C287.722 280.155 301.438 282.114 313.428 273.306C325.418 264.498 363.663 224.354 370.85 210.647C378.037 196.94 375.092 108.816 375.092 108.816C375.092 108.816 379.872 114.693 364.435 101.963C348.993 89.2325 342.532 70.6261 342.532 70.6261C342.532 70.6261 280.521 74.5301 264.12 60.8184Z" fill="white" stroke="#263238" stroke-miterlimit="10" stroke-linecap="round" stroke-linejoin="round"/>
<path d="M375.087 108.815C375.087 108.815 375.101 109.249 375.124 110.007C376.622 110.701 375.087 108.815 375.087 108.815Z" fill="white" stroke="#263238" stroke-miterlimit="10" stroke-linecap="round" stroke-linejoin="round"/>
<path d="M274.133 272.319C287.717 280.154 301.433 282.113 313.424 273.305C325.414 264.493 363.659 224.353 370.846 210.646C377.544 197.866 375.439 120.436 375.124 110.007C374.252 109.601 372.302 108.277 368.449 105.217L369.015 116.651L367.156 199.88L350.166 212.605C350.166 212.605 322.104 193.017 285.717 193.989C249.331 194.962 236.226 209.646 236.226 209.646L223.871 102.916C223.674 111.728 223.514 206.706 228.236 215.523C232.948 224.335 260.549 264.484 274.133 272.319Z" fill="#263238" stroke="#263238" stroke-miterlimit="10" stroke-linecap="round" stroke-linejoin="round"/>
<path d="M278.923 146.006L278.791 195.944C278.791 195.944 284.512 203.779 292.443 200.844C300.369 197.908 301.506 191.054 301.506 191.054" fill="white"/>
<path d="M278.923 146.006L278.791 195.944C278.791 195.944 284.512 203.779 292.443 200.844C300.369 197.908 301.506 191.054 301.506 191.054" stroke="#263238" stroke-miterlimit="10" stroke-linecap="round" stroke-linejoin="round"/>
<path d="M376.33 141.125C376.33 141.125 381.9 111.752 389.717 113.711C397.534 115.67 400.114 132.317 393.753 152.878C387.398 173.439 376.585 173.439 376.585 173.439L376.33 141.125Z" fill="white" stroke="#263238" stroke-miterlimit="10" stroke-linecap="round" stroke-linejoin="round"/>
<path d="M227.108 141.102C227.108 141.102 222.852 111.725 214.944 113.684C207.036 115.642 203.716 132.286 209.154 152.851C214.593 173.416 225.4 173.416 225.4 173.416L227.108 141.102Z" fill="white" stroke="#263238" stroke-miterlimit="10" stroke-linecap="round" stroke-linejoin="round"/>
<path d="M309.698 132.303C309.698 132.303 333.372 128.39 347.043 132.308" stroke="#263238" stroke-miterlimit="10" stroke-linecap="round" stroke-linejoin="round"/>
<path d="M271.412 130.34C271.412 130.34 251.016 119.564 240.048 126.418" stroke="#263238" stroke-miterlimit="10" stroke-linecap="round" stroke-linejoin="round"/>
<path d="M334.793 152.868C334.674 158.274 332.154 162.658 329.167 162.658C326.181 162.658 323.862 158.274 323.98 152.864C324.099 147.458 326.62 143.074 329.606 143.074C332.587 143.079 334.911 147.462 334.793 152.868Z" fill="#263238"/>
<path d="M265.992 152.859C265.873 158.266 263.353 162.649 260.367 162.649C257.381 162.649 255.061 158.266 255.18 152.855C255.299 147.449 257.819 143.065 260.805 143.065C263.791 143.065 266.115 147.453 265.992 152.859Z" fill="#263238"/>
<path d="M273.375 218.463C273.375 218.463 294.776 228.257 316.729 213.573" stroke="white" stroke-miterlimit="10" stroke-linecap="round" stroke-linejoin="round"/>
<path d="M131.774 369.247L142.208 462.827L150.678 404.008" stroke="#263238" stroke-miterlimit="10" stroke-linecap="round" stroke-linejoin="round"/>
<path d="M431.975 398.999C428.341 407.496 425.564 415.204 424.939 420.094C422.77 437.025 437.377 503.871 437.377 503.871" stroke="#263238" stroke-miterlimit="10" stroke-linecap="round" stroke-linejoin="round"/>
<path d="M455.079 352.366C455.079 352.366 450.084 361.439 444.148 373.192" stroke="#263238" stroke-miterlimit="10" stroke-linecap="round" stroke-linejoin="round"/>
<path d="M455.399 517.14L498.625 485.159" stroke="#263238" stroke-miterlimit="10" stroke-linecap="round" stroke-linejoin="round"/>
<path d="M500.593 517.245L322.72 510.98L222.035 573.347L479.297 629.532C479.297 629.532 530.482 620.628 543.308 607.264C556.129 593.899 561.321 561.814 561.659 546.664C561.997 531.514 552.139 492.301 552.139 492.301" fill="white"/>
<path d="M500.593 517.245L322.72 510.98L222.035 573.347L479.297 629.532C479.297 629.532 530.482 620.628 543.308 607.264C556.129 593.899 561.321 561.814 561.659 546.664C561.997 531.514 552.139 492.301 552.139 492.301" stroke="#263238" stroke-miterlimit="10" stroke-linecap="round" stroke-linejoin="round"/>
<path d="M61.901 489.661L351.395 465.229L364.823 523.979L79.3889 630.664C79.3889 630.664 37.893 640.449 19.7888 614.989C1.68464 589.529 -1.6576 563.092 2.73489 542.526C7.12738 521.966 25.3183 499.446 25.3183 499.446" fill="white"/>
<path d="M61.901 489.661L351.395 465.229L364.823 523.979L79.3889 630.664C79.3889 630.664 37.893 640.449 19.7888 614.989C1.68464 589.529 -1.6576 563.092 2.73489 542.526C7.12738 521.966 25.3183 499.446 25.3183 499.446" stroke="#263238" stroke-miterlimit="10" stroke-linecap="round" stroke-linejoin="round"/>
<path d="M353.207 472.082C353.207 472.082 397.456 471.11 410.013 480.904C422.569 490.698 455.394 517.14 455.394 517.14L363.047 514.295L353.207 472.082Z" fill="white" stroke="#263238" stroke-miterlimit="10" stroke-linecap="round" stroke-linejoin="round"/>
<path d="M182.959 480.657C182.959 480.657 128.017 457.475 119.944 458.366C111.871 459.256 83.5256 486.881 83.5256 486.881L182.959 480.657Z" fill="white" stroke="#263238" stroke-miterlimit="10" stroke-linecap="round" stroke-linejoin="round"/>
<path d="M263.252 957.544L263.531 986.291" stroke="#263238" stroke-miterlimit="10" stroke-linecap="round" stroke-linejoin="round"/>
<path d="M262.627 598.31L263.024 934.29" stroke="#263238" stroke-miterlimit="10" stroke-linecap="round" stroke-linejoin="round"/>
<path d="M452.659 797.912C458.106 796.456 462.887 794.707 466.704 792.62" stroke="#263238" stroke-miterlimit="10" stroke-linecap="round" stroke-linejoin="round"/>
<path d="M343.399 786.364L343.897 804.19C343.897 804.19 395.899 807.08 434.751 801.455" stroke="#263238" stroke-miterlimit="10" stroke-linecap="round" stroke-linejoin="round"/>
<path d="M359.623 781.023C359.623 781.023 421.286 783.708 465.357 773.019" stroke="#263238" stroke-miterlimit="10" stroke-linecap="round" stroke-linejoin="round"/>
<path d="M123.469 780.985C123.469 780.985 155.212 801.487 211.73 794.368" stroke="#263238" stroke-miterlimit="10" stroke-linecap="round" stroke-linejoin="round"/>
<path d="M125.656 763.16C125.656 763.16 159.211 782.771 212.186 773.867" stroke="#263238" stroke-miterlimit="10" stroke-linecap="round" stroke-linejoin="round"/>
</svg>
