<svg width="5578" height="4085" viewBox="0 0 5578 4085" fill="none" xmlns="http://www.w3.org/2000/svg">
<g filter="url(#filter0_d_17_7)">
<path d="M2544.66 146.204L2565.24 38.145L2565.24 38.145L2544.66 146.204ZM2036.26 146.204L2067.97 251.536L2067.97 251.536L2036.26 146.204ZM1609.21 430.701L1689.97 505.383L1609.21 430.701ZM1324.51 1060.66L1432.85 1079.69L1432.85 1079.69L1324.51 1060.66ZM4930.72 645.034L5003.47 562.526L5003.47 562.526L4930.72 645.034ZM676.065 2218.97V2328.97H753.892L779.794 2255.58L676.065 2218.97ZM919.914 1528.05L1028.24 1508.92L955.461 1096.81L816.185 1491.44L919.914 1528.05ZM1163.95 2909.89L1055.62 2929.02L1128.77 3343.24L1267.77 2946.24L1163.95 2909.89ZM1405.85 2218.97V2108.97H1327.81L1302.03 2182.62L1405.85 2218.97ZM1893.91 2218.97V2328.97H1964.48L1993.89 2264.83L1893.91 2218.97ZM2117.6 1731.26L2223.59 1701.8L2143.02 1411.99L2017.62 1685.4L2117.6 1731.26ZM2422.64 2828.61L2316.66 2858.07L2424.81 3247.12L2528.92 2856.97L2422.64 2828.61ZM2585.33 2218.97V2108.97H2500.84L2479.05 2190.61L2585.33 2218.97ZM4972.5 2741.53L5063.96 2802.64L4972.5 2741.53ZM4240.4 201.379L4219.83 93.3205L4219.83 93.3205L4240.4 201.379ZM4748.8 201.379L4780.5 96.0468L4780.5 96.0468L4748.8 201.379ZM5175.85 485.876L5256.62 411.194L5256.62 411.194L5175.85 485.876ZM5460.56 1115.83L5570.49 1112.13L5568.9 1096.8L5460.56 1115.83ZM1713.05 2733.22C1889.06 3106.98 2281.63 3440.89 2633.34 3676.91C2811.48 3796.45 2984.1 3894.15 3122.25 3962.35C3191.22 3996.41 3252.77 4023.69 3302.93 4042.75C3327.95 4052.26 3351.38 4060.2 3372.25 4065.91C3391.03 4071.05 3415.42 4076.6 3439.44 4076.6V3856.6C3445.67 3856.6 3444.31 3857.54 3430.32 3853.71C3418.42 3850.45 3402.03 3845.06 3381.09 3837.1C3339.34 3821.23 3284.44 3797.08 3219.64 3765.08C3090.24 3701.2 2926.04 3608.38 2755.93 3494.23C2411.14 3262.86 2061.45 2956.66 1912.08 2639.49L1713.05 2733.22ZM3493.54 751.311C3570.78 672.985 3570.76 672.971 3570.75 672.955C3570.74 672.947 3570.72 672.93 3570.7 672.914C3570.67 672.882 3570.63 672.842 3570.58 672.794C3570.49 672.698 3570.36 672.571 3570.19 672.412C3569.87 672.094 3569.42 671.651 3568.84 671.086C3567.68 669.957 3566.02 668.34 3563.87 666.266C3559.58 662.119 3553.34 656.141 3545.33 648.571C3529.29 633.435 3506.11 611.908 3477.05 585.907C3419.01 533.983 3337.1 463.829 3241.62 390.974C3055.33 248.821 2800.37 82.9167 2565.24 38.145L2524.08 254.262C2704.4 288.597 2923.88 425.246 3108.17 565.87C3197.98 634.403 3275.4 700.694 3330.36 749.867C3357.8 774.415 3379.53 794.599 3394.29 808.538C3401.67 815.505 3407.3 820.905 3411.03 824.502C3412.89 826.3 3414.27 827.646 3415.16 828.512C3415.6 828.945 3415.92 829.257 3416.11 829.446C3416.21 829.54 3416.28 829.604 3416.31 829.635C3416.32 829.651 3416.33 829.659 3416.33 829.659C3416.33 829.659 3416.33 829.654 3416.33 829.654C3416.32 829.646 3416.31 829.636 3493.54 751.311ZM2565.24 38.145C2367.37 0.468963 2221.66 -24.4726 2004.56 40.8713L2067.97 251.536C2231.08 202.441 2331.89 217.665 2524.08 254.262L2565.24 38.145ZM2004.56 40.8713C1787.6 106.173 1672.54 200.191 1528.45 356.018L1689.97 505.383C1817.94 367 1901.08 301.766 2067.97 251.536L2004.56 40.8713ZM1528.45 356.018C1325.43 575.564 1264.87 764.346 1216.17 1041.63L1432.85 1079.69C1477.54 825.224 1526.33 682.349 1689.97 505.383L1528.45 356.018ZM1216.17 1041.63C1184.75 1220.47 1213.94 1440.7 1246.67 1606.54C1263.43 1691.45 1281.95 1765.99 1296.28 1819.34C1303.46 1846.06 1309.61 1867.58 1314.02 1882.55C1316.22 1890.04 1317.99 1895.9 1319.23 1899.96C1319.85 1901.99 1320.34 1903.58 1320.68 1904.69C1320.86 1905.25 1320.99 1905.69 1321.09 1906C1321.14 1906.16 1321.18 1906.29 1321.22 1906.39C1321.23 1906.44 1321.25 1906.49 1321.26 1906.52C1321.26 1906.54 1321.27 1906.56 1321.27 1906.57C1321.28 1906.58 1321.28 1906.6 1426.19 1873.51C1531.09 1840.41 1531.09 1840.43 1531.1 1840.44C1531.1 1840.44 1531.1 1840.45 1531.1 1840.45C1531.1 1840.45 1531.1 1840.45 1531.1 1840.44C1531.09 1840.42 1531.07 1840.37 1531.05 1840.29C1531 1840.13 1530.91 1839.85 1530.79 1839.45C1530.54 1838.66 1530.16 1837.41 1529.64 1835.72C1528.61 1832.34 1527.06 1827.19 1525.07 1820.46C1521.11 1806.98 1515.43 1787.14 1508.75 1762.28C1495.37 1712.46 1478.09 1642.87 1462.51 1563.94C1430.57 1402.13 1408.92 1215.94 1432.85 1079.69L1216.17 1041.63ZM4157.95 543.428C4205.22 642.756 4205.18 642.776 4205.14 642.795C4205.13 642.8 4205.09 642.819 4205.06 642.83C4205.02 642.851 4204.98 642.87 4204.95 642.885C4204.88 642.916 4204.84 642.935 4204.82 642.942C4204.79 642.957 4204.86 642.926 4205.02 642.851C4205.35 642.701 4206.07 642.376 4207.15 641.898C4209.32 640.942 4212.97 639.376 4217.98 637.366C4228 633.34 4243.36 627.575 4263.08 621.373C4302.74 608.901 4358.84 595.048 4423.98 589.532C4553.65 578.55 4713.94 600.55 4857.97 727.543L5003.47 562.526C4801.79 384.7 4575.69 355.897 4405.41 370.317C4320.58 377.501 4248.3 395.4 4197.09 411.505C4171.37 419.591 4150.66 427.321 4135.98 433.217C4128.63 436.168 4122.77 438.671 4118.52 440.542C4116.39 441.478 4114.67 442.258 4113.36 442.858C4112.7 443.158 4112.15 443.413 4111.71 443.621C4111.48 443.725 4111.29 443.818 4111.12 443.897C4111.03 443.937 4110.95 443.974 4110.88 444.008C4110.85 444.025 4110.8 444.048 4110.78 444.056C4110.73 444.079 4110.69 444.1 4157.95 543.428ZM4857.97 727.542C5006.88 858.837 5063.9 1015.76 5083.89 1142.29C5093.92 1205.77 5094.46 1260.88 5092.53 1299.7C5091.57 1319.03 5090.01 1334.11 5088.77 1343.88C5088.16 1348.76 5087.62 1352.3 5087.29 1354.37C5087.13 1355.41 5087.01 1356.07 5086.96 1356.35C5086.94 1356.49 5086.93 1356.53 5086.94 1356.47C5086.95 1356.44 5086.96 1356.39 5086.97 1356.31C5086.98 1356.27 5086.99 1356.23 5087 1356.18C5087 1356.15 5087.01 1356.11 5087.01 1356.09C5087.02 1356.05 5087.03 1356 5195.09 1376.6C5303.14 1397.2 5303.15 1397.15 5303.16 1397.09C5303.16 1397.07 5303.17 1397.02 5303.18 1396.98C5303.19 1396.91 5303.21 1396.82 5303.23 1396.73C5303.26 1396.55 5303.3 1396.34 5303.34 1396.1C5303.43 1395.64 5303.53 1395.06 5303.65 1394.38C5303.89 1393.03 5304.19 1391.26 5304.54 1389.09C5305.23 1384.76 5306.11 1378.83 5307.04 1371.45C5308.9 1356.7 5310.99 1336.05 5312.26 1310.62C5314.78 1259.89 5314.04 1189.27 5301.2 1107.96C5275.43 944.906 5200.27 736.05 5003.47 562.526L4857.97 727.542ZM4.98035 2328.97H676.065V2108.97H4.98035V2328.97ZM779.794 2255.58L1023.64 1564.66L816.185 1491.44L572.336 2182.36L779.794 2255.58ZM811.59 1547.18L1055.62 2929.02L1272.27 2890.76L1028.24 1508.92L811.59 1547.18ZM1267.77 2946.24L1509.67 2255.32L1302.03 2182.62L1060.12 2873.54L1267.77 2946.24ZM1405.85 2328.97H1893.91V2108.97H1405.85V2328.97ZM1993.89 2264.83L2217.59 1777.12L2017.62 1685.4L1793.93 2173.11L1993.89 2264.83ZM2011.62 1760.72L2316.66 2858.07L2528.63 2799.15L2223.59 1701.8L2011.62 1760.72ZM2528.92 2856.97L2691.61 2247.33L2479.05 2190.61L2316.36 2800.24L2528.92 2856.97ZM2585.33 2328.97H3337.76V2108.97H2585.33V2328.97ZM4881.03 2680.43C4679.46 2982.16 4343.71 3279.47 4035.43 3503.33C3882.22 3614.59 3738.48 3705.76 3625.55 3768.6C3568.94 3800.09 3521.49 3823.68 3485.36 3839.04C3467.25 3846.74 3453.41 3851.76 3443.59 3854.69C3432.05 3858.13 3431.99 3856.88 3439.03 3856.88V4076.88C3463.87 4076.88 3488.05 4071.01 3506.51 4065.5C3526.71 4059.47 3548.65 4051.19 3571.43 4041.5C3617.08 4022.1 3671.84 3994.6 3732.52 3960.84C3854.18 3893.15 4005.36 3797.05 4164.69 3681.35C4481.49 3451.3 4841.3 3135.94 5063.96 2802.64L4881.03 2680.43ZM3342.58 751.31C3419.42 830.028 3419.41 830.04 3419.4 830.049C3419.4 830.05 3419.39 830.057 3419.39 830.059C3419.38 830.062 3419.39 830.058 3419.4 830.047C3419.42 830.025 3419.47 829.975 3419.55 829.897C3419.71 829.741 3419.99 829.474 3420.38 829.1C3421.15 828.351 3422.38 827.172 3424.04 825.589C3427.36 822.422 3432.41 817.64 3439.06 811.453C3452.36 799.075 3472.03 781.099 3496.99 759.191C3547.01 715.302 3617.88 656.006 3701.11 594.45C3871.29 468.59 4078.97 344.095 4260.98 309.438L4219.83 93.3205C3986.39 137.77 3745.16 288.24 3570.29 417.569C3481 483.608 3405.3 546.963 3351.89 593.825C3325.15 617.292 3303.89 636.718 3289.19 650.397C3281.83 657.239 3276.12 662.65 3272.17 666.418C3270.19 668.303 3268.66 669.777 3267.58 670.815C3267.05 671.334 3266.62 671.743 3266.32 672.041C3266.16 672.19 3266.04 672.31 3265.94 672.402C3265.9 672.448 3265.86 672.487 3265.82 672.519C3265.81 672.535 3265.79 672.553 3265.78 672.561C3265.76 672.578 3265.75 672.593 3342.58 751.31ZM4260.98 309.438C4453.18 272.841 4553.99 257.617 4717.1 306.711L4780.5 96.0468C4563.41 30.703 4417.69 55.6445 4219.83 93.3205L4260.98 309.438ZM4717.1 306.711C4883.98 356.942 4967.13 422.176 5095.09 560.559L5256.62 411.194C5112.52 255.367 4997.46 161.349 4780.5 96.0468L4717.1 306.711ZM5095.09 560.559C5258.74 737.524 5307.52 880.399 5352.22 1134.86L5568.9 1096.8C5520.19 819.521 5459.63 630.739 5256.62 411.194L5095.09 560.559ZM5350.62 1119.54C5361.84 1452.43 5338.85 1697.73 5268.16 1929.56C5197.25 2162.14 5076.18 2388.3 4881.03 2680.43L5063.96 2802.64C5264.19 2502.92 5398.6 2256.1 5478.6 1993.72C5558.83 1730.6 5582.18 1458.97 5570.49 1112.13L5350.62 1119.54Z" fill="black"/>
</g>
<defs>
<filter id="filter0_d_17_7" x="0.980347" y="0.438049" width="5576.34" height="4084.44" filterUnits="userSpaceOnUse" color-interpolation-filters="sRGB">
<feFlood flood-opacity="0" result="BackgroundImageFix"/>
<feColorMatrix in="SourceAlpha" type="matrix" values="0 0 0 0 0 0 0 0 0 0 0 0 0 0 0 0 0 0 127 0" result="hardAlpha"/>
<feOffset dy="4"/>
<feGaussianBlur stdDeviation="2"/>
<feComposite in2="hardAlpha" operator="out"/>
<feColorMatrix type="matrix" values="0 0 0 0 0 0 0 0 0 0 0 0 0 0 0 0 0 0 0.25 0"/>
<feBlend mode="normal" in2="BackgroundImageFix" result="effect1_dropShadow_17_7"/>
<feBlend mode="normal" in="SourceGraphic" in2="effect1_dropShadow_17_7" result="shape"/>
</filter>
</defs>
</svg>
