<svg width="207" height="84" viewBox="0 0 207 84" stroke="currentColor" fill="none" xmlns="http://www.w3.org/2000/svg">
<path d="M0 61.0617H25L29 55.5617L32 61.0617H39L46.5 36.0617L51 83.0617L56.5 61.0617H66L69 55.5617L71.5 62.5617L73.5 60.0617H100C100 60.0617 73.5 41 73.5 23.0617C73.5 11.0487 82.9884 1.24627 95 1.06173C103.477 0.931501 114 11.5617 114 11.5617C114 11.5617 125.561 0.0608688 134.5 1.06173C145.656 2.3108 153 11.8363 153 23.0617C153 45 127.5 60.0617 127.5 60.0617H150L154 46.5617L158 73.0617L160 53.0617L162 33.0617L164 62.5617L167 60.0617H172.5L175 66.5617L176.75 59.5617L178.5 52.5617L181 60.0617H206.5" stroke="#EC6608" stroke-width="1.5" stroke-miterlimit="2.3662" stroke-linejoin="round"/>
</svg>
