<svg width="653" height="60" viewBox="0 0 653 60" fill="none" xmlns="http://www.w3.org/2000/svg">
<path d="M0 43H16.889C16.9606 43 17.0299 42.9744 17.0843 42.9278L23.7288 37.2325C23.8703 37.1112 24.0871 37.1469 24.1821 37.3073L31.5883 49.8052C31.7301 50.0445 32.0929 49.9787 32.1417 49.7049L40.6273 2.09099C40.6883 1.74891 41.1849 1.76682 41.2211 2.1124L45.4392 42.4187C45.4646 42.6617 45.7543 42.774 45.9368 42.6117L49.8244 39.1561C49.9275 39.0644 50.0799 39.0549 50.1936 39.1331L57.8581 44.4024C57.946 44.4629 58.0593 44.4721 58.1558 44.4267L66.3344 40.5779C66.4361 40.5301 66.556 40.5431 66.6451 40.6116L72.8237 45.3644C72.9284 45.4449 73.0735 45.4475 73.181 45.3707L76.4111 43.0635C76.4685 43.0225 76.5096 42.9625 76.5272 42.8942L84.6517 11.3523C84.7323 11.0393 85.1828 11.0575 85.2378 11.376L91.7663 49.1478C91.8211 49.4651 92.2693 49.4849 92.3519 49.1737L98.1124 27.4609C98.1966 27.1435 98.6564 27.1726 98.6998 27.4982L101.338 47.2883C101.38 47.5993 101.811 47.646 101.918 47.3512L103.488 43.0339C103.496 43.0114 103.507 42.9899 103.52 42.97L107.265 37.3528C107.38 37.1806 107.63 37.1736 107.754 37.3392L111.984 42.9784C111.995 42.9928 112.004 43.0081 112.012 43.0242L113.846 46.6923C113.928 46.855 114.134 46.9085 114.284 46.8058L123.333 40.6144C123.434 40.5453 123.567 40.5445 123.669 40.6124L129.342 44.3947C129.438 44.459 129.563 44.462 129.663 44.4023L131.902 43.0589C131.965 43.021 132.012 42.9611 132.034 42.8906L136.036 29.9943C136.134 29.6786 136.596 29.7303 136.622 30.0598L138.779 57.6691C138.807 58.0279 139.328 58.0421 139.375 57.6853L145.658 10.5632C145.705 10.21 146.219 10.2188 146.254 10.5733L149.931 47.8008C149.957 48.0636 150.285 48.1671 150.457 47.9665L155.817 41.7134C155.92 41.5934 156.098 41.5738 156.225 41.6686L159.92 44.44C159.972 44.4789 160.035 44.5 160.1 44.5H173.87C173.953 44.5 174.032 44.4655 174.089 44.4047L180.725 37.2942C180.862 37.1475 181.102 37.174 181.204 37.3472L189.079 50.7824C189.221 51.0247 189.589 50.9563 189.634 50.679L197.637 1.72047C197.694 1.37485 198.195 1.38965 198.232 1.738L202.43 42.3281C202.457 42.5867 202.778 42.6912 202.952 42.4979L206.802 38.2199C206.912 38.098 207.099 38.0868 207.223 38.1948L214.837 44.8574C214.934 44.9425 215.075 44.9557 215.187 44.8902L223.332 40.0988C223.434 40.0387 223.562 40.0444 223.659 40.1132L230.293 44.8523C230.413 44.9375 230.576 44.924 230.68 44.8203L235.437 40.0632C235.478 40.0219 235.506 39.9696 235.518 39.9126L241.669 10.5774C241.737 10.2521 242.206 10.2627 242.259 10.5908L248.761 50.5303C248.813 50.8535 249.272 50.8707 249.349 50.5523L255.109 26.6228C255.188 26.2975 255.659 26.3251 255.699 26.6572L258.323 48.522C258.362 48.8471 258.819 48.8835 258.909 48.5686L260.489 43.0397C260.496 43.0133 260.507 42.9882 260.522 42.9649L264.239 36.9237C264.358 36.7313 264.638 36.7338 264.753 36.9283L270.825 47.2044C270.918 47.3608 271.127 47.3998 271.269 47.2872L280.317 40.1449C280.424 40.0597 280.576 40.0587 280.685 40.1425L286.681 44.7544C286.84 44.8769 287.072 44.8114 287.144 44.6238L293.046 29.1881C293.159 28.8923 293.594 28.9507 293.625 29.2659L296.24 55.8551C296.275 56.2108 296.791 56.2182 296.836 55.8637L302.665 10.1316C302.71 9.77713 303.226 9.78444 303.261 10.14L306.931 47.3008C306.957 47.5636 307.285 47.6671 307.457 47.4665L312.801 41.2319C312.91 41.1045 313.103 41.0915 313.228 41.2029L317.327 44.8462C317.429 44.9368 317.579 44.9472 317.693 44.8716L320.424 43.0504C320.474 43.0175 320.532 43 320.591 43H333.369C333.453 43 333.532 42.9653 333.589 42.9041L339.713 36.309C339.853 36.1578 340.101 36.1902 340.198 36.3724L348.078 51.2055C348.213 51.46 348.595 51.3959 348.639 51.1111L354.74 12.1629C354.791 11.832 355.264 11.822 355.33 12.1505L361.383 42.4138C361.431 42.6558 361.735 42.7391 361.9 42.5556L365.798 38.2241C365.91 38.1005 366.1 38.091 366.223 38.2028L371.5 43L373.836 44.8686C373.934 44.9475 374.072 44.9561 374.18 44.8903L382.79 39.6283C382.912 39.5537 383.07 39.5757 383.167 39.6808L388.692 45.6666C388.838 45.8246 389.098 45.7823 389.186 45.5862L402.083 16.9261C402.206 16.6535 402.608 16.7084 402.653 17.0039L407.772 50.5069C407.821 50.8315 408.282 50.852 408.36 50.5331L414.115 27.0677C414.195 26.7448 414.662 26.7714 414.704 27.1012L417.375 48.0218C417.413 48.3158 417.808 48.3831 417.941 48.1179L423.266 37.4686C423.369 37.2612 423.659 37.2449 423.786 37.4393L429.839 46.7517C429.928 46.8894 430.112 46.9295 430.25 46.8419L439.342 41.0999C439.439 41.0387 439.562 41.038 439.659 41.098L445.695 44.8123C445.854 44.9101 446.063 44.8405 446.131 44.6667L452.146 29.399C452.254 29.1249 452.651 29.1544 452.717 29.4415L456.618 46.3449C456.694 46.6719 457.167 46.6473 457.208 46.3142L461.669 10.1801C461.713 9.82473 462.23 9.83104 462.265 10.1873L465.931 47.3008C465.957 47.5636 466.285 47.6671 466.457 47.4665L471.778 41.2593C471.896 41.1219 472.107 41.1193 472.228 41.2539L476.268 45.7425C476.391 45.8784 476.605 45.8743 476.722 45.7339L478.91 43.1079C478.967 43.0395 479.051 43 479.141 43H489.876C489.955 43 490.032 42.9684 490.088 42.9121L496.714 36.2863C496.856 36.1438 497.096 36.1795 497.191 36.3573L504.582 50.217C504.717 50.4702 505.097 50.4074 505.143 50.1242L513.15 1.13824C513.207 0.79437 513.705 0.806561 513.745 1.15276L518.425 42.3378C518.454 42.5948 518.773 42.6969 518.946 42.5046L522.802 38.2199C522.912 38.098 523.099 38.0868 523.223 38.1948L530.822 44.8445C530.927 44.9357 531.08 44.9437 531.193 44.8638L539.294 39.1457C539.413 39.0615 539.575 39.0754 539.679 39.1787L546.149 45.6488C546.308 45.8084 546.58 45.7412 546.647 45.5257L557.622 10.2161C557.716 9.91363 558.154 9.94431 558.205 10.2569L564.756 50.4988C564.808 50.8233 565.27 50.8387 565.344 50.5184L571.108 25.6873C571.184 25.3594 571.66 25.3863 571.699 25.7208L574.371 48.8792C574.406 49.1847 574.823 49.2456 574.944 48.963L580.261 36.557C580.359 36.3288 580.676 36.3114 580.798 36.5276L586.829 47.1974C586.919 47.3569 587.13 47.3991 587.274 47.2866L595.826 40.6352C595.93 40.5548 596.073 40.5508 596.181 40.6254L602.197 44.7902C602.353 44.8985 602.57 44.8358 602.644 44.6607L609.018 29.6363C609.141 29.3469 609.569 29.4173 609.593 29.7308L611.778 58.5681C611.805 58.9283 612.329 58.9419 612.375 58.5836L618.658 9.66129C618.704 9.30643 619.22 9.31491 619.254 9.67107L622.923 48.1939C622.95 48.471 623.306 48.5659 623.467 48.3385L628.767 40.8307C628.883 40.6661 629.125 40.6605 629.248 40.8195L632.41 44.8842C632.467 44.9573 632.554 45 632.647 45H653" stroke="#EC6608"/>
</svg>
